<?xml version="1.0" encoding="UTF-8" standalone="no"?><!DOCTYPE svg PUBLIC "-//W3C//DTD SVG 1.1//EN" "http://www.w3.org/Graphics/SVG/1.1/DTD/svg11.dtd"><svg width="100%" height="100%" viewBox="0 0 480 480" version="1.1" xmlns="http://www.w3.org/2000/svg" xmlns:xlink="http://www.w3.org/1999/xlink" xml:space="preserve" xmlns:serif="http://www.serif.com/" style="fill-rule:evenodd;clip-rule:evenodd;stroke-linejoin:round;"><g><rect x="18.457" y="18.438" width="442.966" height="442.523" style="fill:none;stroke:#888;stroke-width:3px;"/><path d="M18.457,165.946l442.966,0" style="fill:none;fill-rule:nonzero;stroke:#888;stroke-width:3px;"/><path d="M18.457,313.454l442.966,0" style="fill:none;fill-rule:nonzero;stroke:#888;stroke-width:3px;"/><path d="M166.112,18.438l0,442.523" style="fill:none;fill-rule:nonzero;stroke:#888;stroke-width:3px;"/><path d="M313.768,18.438l0,442.523" style="fill:none;fill-rule:nonzero;stroke:#888;stroke-width:3px;"/></g><path d="M184.569,165.946c0,10.176 -8.27,18.438 -18.457,18.438c-10.187,0 -18.457,-8.262 -18.457,-18.438c0,-10.176 8.27,-18.438 18.457,-18.438c10.187,0 18.457,8.262 18.457,18.438Z" style="fill:#4caf50;"/><path d="M332.225,313.454c0,10.176 -8.27,18.438 -18.457,18.438c-10.187,0 -18.457,-8.262 -18.457,-18.438c0,-10.176 8.27,-18.438 18.457,-18.438c10.187,0 18.457,8.262 18.457,18.438Z" style="fill:#ff9800;"/><path d="M36.914,313.454c0,10.176 -8.27,18.438 -18.457,18.438c-10.187,0 -18.457,-8.262 -18.457,-18.438c0,-10.176 8.27,-18.438 18.457,-18.438c10.187,0 18.457,8.262 18.457,18.438Z" style="fill:#e91e63;"/><path d="M184.569,18.438c0,10.176 -8.27,18.438 -18.457,18.438c-10.187,0 -18.457,-8.262 -18.457,-18.438c0,-10.176 8.27,-18.438 18.457,-18.438c10.187,0 18.457,8.262 18.457,18.438Z" style="fill:#9c27b0;"/><path d="M479.88,165.946c0,10.176 -8.27,18.438 -18.457,18.438c-10.187,0 -18.457,-8.262 -18.457,-18.438c0,-10.176 8.27,-18.438 18.457,-18.438c10.187,0 18.457,8.262 18.457,18.438Z" style="fill:#00bcd4;"/><path d="M332.225,18.438c0,10.176 -8.27,18.438 -18.457,18.438c-10.187,0 -18.457,-8.262 -18.457,-18.438c0,-10.176 8.27,-18.438 18.457,-18.438c10.187,0 18.457,8.262 18.457,18.438Z" style="fill:#795548;"/></svg>